<svg viewBox="0 0 1440 198" fill="none" xmlns="http://www.w3.org/2000/svg">
  <path
    d="M1440 197.548H0V0C0 0 95.0303 62.0586 262.481 63.2549C395.87 64.2055 534.585 12.7822 677.833 12.7822C895.721 12.7822 965.427 58.3857 1130.83 61.3063C1296.22 64.2269 1339.37 12.7822 1440 47.6842"
    fill="#2E3440" />
  <path
    d="M1440 113.788C1440 113.788 1089.06 206.127 669.568 100.122C277.49 1.04452 0 36.0153 0 36.0153V197.548H1440V113.788Z"
    fill="#3B4252" />
  <path
    d="M0 154.525C0 154.525 156.41 94.8011 525.994 138.114C808.524 171.229 916.619 84.4109 1067.9 84.4109C1235.1 84.4109 1301.57 150.41 1440 152.679V197.548H0V154.525Z"
    fill="#434C5E" />
</svg>
